<svg width="77" height="77" viewBox="0 0 77 77" fill="none" xmlns="http://www.w3.org/2000/svg">
<g id="connect without contact 1" clip-path="url(#clip0_7_28)">
<path id="Vector" d="M34.7042 46.2723H26.9319C26.9319 41.4522 27.8357 36.9335 29.6432 32.716C31.4507 28.4984 33.9511 24.8232 37.1444 21.6901C40.3377 18.5571 44.0129 16.0869 48.1702 14.2793C52.3275 12.4718 56.8161 11.5681 61.6362 11.5681V19.1596C57.9006 19.1596 54.4061 19.8826 51.1526 21.3286C47.899 22.7747 45.0372 24.7328 42.5669 27.2031C40.0966 29.6733 38.1686 32.5352 36.7829 35.7887C35.3971 39.0423 34.7042 42.5368 34.7042 46.2723ZM61.6362 34.7042V26.9319C58.1416 26.9319 54.9182 27.8055 51.966 29.5528C49.0137 31.3001 46.6639 33.6197 44.9167 36.5117C43.1694 39.4038 42.2958 42.6573 42.2958 46.2723H50.0681C50.0681 44.1033 50.5802 42.1452 51.6045 40.3979C52.6287 38.6506 54.0145 37.2649 55.7617 36.2406C57.509 35.2163 59.4671 34.7042 61.6362 34.7042ZM19.1596 7.59155C19.1596 5.54303 18.4065 3.76566 16.9002 2.25939C15.394 0.753121 13.6166 0 11.5681 0C9.39905 0 7.56143 0.753121 6.05516 2.25939C4.5489 3.76566 3.79578 5.54303 3.79578 7.59155C3.79578 9.76057 4.5489 11.5982 6.05516 13.1045C7.56143 14.6107 9.39905 15.3639 11.5681 15.3639C13.6166 15.3639 15.394 14.6107 16.9002 13.1045C18.4065 11.5982 19.1596 9.76057 19.1596 7.59155ZM36.331 9.57981H28.7394C28.2574 12.3513 26.9621 14.6408 24.8533 16.4484C22.7445 18.2559 20.2441 19.1596 17.3521 19.1596H5.78404C4.09702 19.1596 2.71127 19.732 1.62676 20.8768C0.542249 22.0215 0 23.3771 0 24.9437V34.7042H23.1362V25.8474C26.6307 24.7629 29.6131 22.7445 32.0833 19.7923C34.5536 16.84 35.9695 13.4359 36.331 9.57981ZM65.4319 57.8404C67.601 57.8404 69.4386 57.0873 70.9448 55.581C72.4511 54.0747 73.2042 52.2371 73.2042 50.0681C73.2042 47.8991 72.4511 46.0614 70.9448 44.5552C69.4386 43.0489 67.601 42.2958 65.4319 42.2958C63.3834 42.2958 61.606 43.0489 60.0998 44.5552C58.5935 46.0614 57.8404 47.8991 57.8404 50.0681C57.8404 52.2371 58.5935 54.0747 60.0998 55.581C61.606 57.0873 63.3834 57.8404 65.4319 57.8404ZM71.216 61.6362H59.6479C56.7559 61.6362 54.2555 60.7023 52.1467 58.8345C50.0379 56.9667 48.7426 54.7074 48.2606 52.0563H40.669C41.0305 55.9124 42.4464 59.3165 44.9167 62.2688C47.3869 65.2211 50.3693 67.2394 53.8638 68.3239V77H77V67.4202C77 65.8537 76.4577 64.498 75.3732 63.3533C74.2887 62.2085 72.903 61.6362 71.216 61.6362Z" fill="black"/>
</g>
<defs>
<clipPath id="clip0_7_28">
<rect width="77" height="77" fill="white"/>
</clipPath>
</defs>
</svg>
