<svg width="78" height="77" viewBox="0 0 78 77" fill="none" xmlns="http://www.w3.org/2000/svg">
<g id="explore 1" clip-path="url(#clip0_7_26)">
<path id="Vector" d="M39 0C17.3944 0 0 17.1714 0 38.5C0 59.8286 17.3944 77 39 77C60.6056 77 78 59.8286 78 38.5C78 17.1714 60.6056 0 39 0ZM39 69.4084C21.7887 69.4084 7.69014 55.4906 7.69014 38.5C7.69014 21.5094 21.7887 7.59155 39 7.59155C56.2113 7.59155 70.3099 21.5094 70.3099 38.5C70.3099 55.4906 56.2113 69.4084 39 69.4084ZM17.5775 59.6479L46.8732 46.2723L60.4225 17.3521L31.1268 30.7277L17.5775 59.6479ZM39 34.3427C41.3803 34.3427 43.2113 36.1502 43.2113 38.5C43.2113 40.8498 41.3803 42.6573 39 42.6573C36.6197 42.6573 34.7887 40.8498 34.7887 38.5C34.7887 36.1502 36.6197 34.3427 39 34.3427Z" fill="black"/>
</g>
<defs>
<clipPath id="clip0_7_26">
<rect width="78" height="77" fill="white"/>
</clipPath>
</defs>
</svg>
