<svg width="76" height="73" viewBox="0 0 76 73" fill="none" xmlns="http://www.w3.org/2000/svg">
<g id="road map line 1">
<path id="Vector" d="M6.90281 17.6824V61.7851L24.3669 54.3544L45.0754 64.6748L62.1253 57.3817V13.279L66.6122 11.3525C67.0724 11.169 67.521 11.169 67.9582 11.3525C68.3954 11.536 68.706 11.8341 68.8901 12.2469C68.9821 12.4763 69.0282 12.7056 69.0282 12.935V61.9227L44.8683 72.2432L24.1599 61.9227L2.41599 71.2111C1.95579 71.3946 1.50712 71.3946 1.06994 71.2111C0.632755 71.0276 0.322132 70.7295 0.138057 70.3167C0.0460171 70.0873 0 69.858 0 69.6287V20.6409L6.90281 17.6824ZM49.148 35.2271L34.5141 49.8134L19.8801 35.2271C17.211 32.6126 15.4163 29.4936 14.4959 25.8699C13.5755 22.3839 13.5755 18.8979 14.4959 15.4119C15.4163 11.7882 17.1995 8.65773 19.8456 6.02027C22.4917 3.3828 25.6324 1.60541 29.2679 0.688034C32.7654 -0.229345 36.2628 -0.229345 39.7602 0.688034C43.3957 1.60541 46.5365 3.3828 49.1826 6.02027C51.8287 8.65773 53.6119 11.7882 54.5322 15.4119C55.4526 18.8979 55.4526 22.3839 54.5322 25.8699C53.6119 29.4936 51.8171 32.6126 49.148 35.2271ZM34.5141 40.1122L44.247 30.3421C46.0418 28.5991 47.2498 26.5465 47.871 24.1843C48.4923 21.822 48.4923 19.4598 47.871 17.0975C47.2498 14.7353 46.0533 12.6712 44.2816 10.9053C42.5098 9.13933 40.439 7.94675 38.069 7.32752C35.699 6.70829 33.3291 6.70829 30.9591 7.32752C28.5891 7.94675 26.5183 9.13933 24.7466 10.9053C22.9749 12.6712 21.7784 14.7353 21.1571 17.0975C20.5359 19.4598 20.5359 21.822 21.1571 24.1843C21.7784 26.5465 22.9864 28.5991 24.7811 30.3421L34.5141 40.1122Z" fill="black"/>
</g>
</svg>
